<svg width="230" height="230" viewBox="0 0 230 230" fill="none" xmlns="http://www.w3.org/2000/svg">
<path d="M115 0.375C92.3293 0.375 70.1677 7.09764 51.3177 19.6928C32.4678 32.288 17.776 50.1899 9.1003 71.1349C0.424604 92.0799 -1.84535 115.127 2.57748 137.362C7.00031 159.597 17.9173 180.022 33.9479 196.052C49.9785 212.083 70.4027 223 92.6378 227.423C114.873 231.845 137.92 229.575 158.865 220.9C179.81 212.224 197.712 197.532 210.307 178.682C222.902 159.832 229.625 137.671 229.625 115C229.625 84.5996 217.548 55.4442 196.052 33.9479C174.556 12.4515 145.4 0.375 115 0.375V0.375ZM115 49.5C117.429 49.5 119.803 50.2203 121.823 51.5698C123.843 52.9192 125.417 54.8373 126.346 57.0814C127.276 59.3255 127.519 61.7949 127.045 64.1772C126.571 66.5595 125.402 68.7478 123.684 70.4654C121.967 72.183 119.778 73.3526 117.396 73.8265C115.014 74.3004 112.544 74.0572 110.3 73.1276C108.056 72.1981 106.138 70.624 104.789 68.6043C103.439 66.5847 102.719 64.2103 102.719 61.7812C102.719 58.5241 104.013 55.4003 106.316 53.0971C108.619 50.7939 111.743 49.5 115 49.5ZM147.75 181.523H82.25V163.102H105.789V116.023H90.4375V97.6016H124.211V163.102H147.75V181.523Z" fill="white"/>
</svg>
