<svg width="24" height="24" viewBox="0 0 24 24" fill="none" xmlns="http://www.w3.org/2000/svg">
<path d="M8 7V3.6C8 3.44087 8.06321 3.28826 8.17574 3.17574C8.28826 3.06321 8.44087 3 8.6 3H15.4C15.5591 3 15.7117 3.06321 15.8243 3.17574C15.9368 3.28826 16 3.44087 16 3.6V7M17.571 18H20.4C20.5591 18 20.7117 17.9368 20.8243 17.8243C20.9368 17.7117 21 17.5591 21 17.4V11C21 9.93913 20.5786 8.92172 19.8284 8.17157C19.0783 7.42143 18.0609 7 17 7H7C5.93913 7 4.92172 7.42143 4.17157 8.17157C3.42143 8.92172 3 9.93913 3 11V17.4C3 17.5591 3.06321 17.7117 3.17574 17.8243C3.28826 17.9368 3.44087 18 3.6 18H6.429H17.571Z" stroke="#333333" stroke-width="1.5"/>
<path d="M6.09797 20.315L6.42797 18L6.92597 14.515C6.94643 14.372 7.01776 14.2413 7.12687 14.1467C7.23599 14.0521 7.37556 14 7.51997 14H16.48C16.6244 14 16.764 14.0521 16.8731 14.1467C16.9822 14.2413 17.0535 14.372 17.074 14.515L17.57 18L17.901 20.315C17.9132 20.4001 17.9069 20.4868 17.8826 20.5693C17.8584 20.6518 17.8167 20.7281 17.7603 20.7931C17.704 20.858 17.6344 20.9101 17.5561 20.9458C17.4779 20.9815 17.3929 21 17.307 21H6.69197C6.60599 21 6.52101 20.9815 6.44279 20.9458C6.36458 20.9101 6.29494 20.858 6.23861 20.7931C6.18229 20.7281 6.14058 20.6518 6.11631 20.5693C6.09204 20.4868 6.08579 20.4001 6.09797 20.315V20.315Z" stroke="#333333" stroke-width="1.5"/>
<path d="M17 10.01L17.01 9.99902" stroke="#333333" stroke-width="1.5" stroke-linecap="round" stroke-linejoin="round"/>
</svg>
