<svg width="210" height="226" viewBox="0 0 210 226" fill="none" xmlns="http://www.w3.org/2000/svg">
<path d="M44.1875 60.875C44.1875 77.0035 50.5945 92.4714 61.9991 103.876C73.4036 115.28 88.8715 121.688 105 121.688C121.128 121.688 136.596 115.28 148.001 103.876C159.405 92.4714 165.812 77.0035 165.812 60.875C165.812 44.7465 159.405 29.2786 148.001 17.8741C136.596 6.46951 121.128 0.0625 105 0.0625C88.8715 0.0625 73.4036 6.46951 61.9991 17.8741C50.5945 29.2786 44.1875 44.7465 44.1875 60.875V60.875ZM191.875 225.938H9.4375C7.13343 225.938 4.92373 225.022 3.29451 223.393C1.66529 221.764 0.75 219.554 0.75 217.25V191.188C0.75 179.667 5.32644 168.619 13.4725 160.473C21.6187 152.326 32.6672 147.75 44.1875 147.75H165.812C177.333 147.75 188.381 152.326 196.527 160.473C204.674 168.619 209.25 179.667 209.25 191.188V217.25C209.25 219.554 208.335 221.764 206.705 223.393C205.076 225.022 202.867 225.938 200.562 225.938H191.875Z" fill="white"/>
</svg>
